<?xml version="1.0" encoding="UTF-8" standalone="no"?>
<svg
   svg:contrastcolor="ffffff"
   svg:template="BlackAndHighlightColorHex1"
   svg:presentation="2.5"
   svg:layouttype="undefined"
   svg:specialfontid="undefined"
   svg:id1="800"
   svg:id2="1048"
   svg:companyname="Hotel Center"
   svg:companytagline=""
   version="1.1"
   viewBox="0 45 1190.9363 633.40906"
   id="svg62"
   sodipodi:docname="hotelcenter.svg"
   width="1190.9363"
   height="633.40906"
   inkscape:version="1.2.2 (732a01da63, 2022-12-09)"
   xml:space="preserve"
   xmlns:inkscape="http://www.inkscape.org/namespaces/inkscape"
   xmlns:sodipodi="http://sodipodi.sourceforge.net/DTD/sodipodi-0.dtd"
   xmlns="http://www.w3.org/2000/svg"
   xmlns:svg="http://www.w3.org/2000/svg"><defs
     id="defs66" /><sodipodi:namedview
     id="namedview64"
     pagecolor="#ffffff"
     bordercolor="#000000"
     borderopacity="0.25"
     inkscape:showpageshadow="2"
     inkscape:pageopacity="0.0"
     inkscape:pagecheckerboard="0"
     inkscape:deskcolor="#d1d1d1"
     showgrid="false"
     inkscape:zoom="0.50464497"
     inkscape:cx="595.46814"
     inkscape:cy="317.05458"
     inkscape:window-width="1366"
     inkscape:window-height="705"
     inkscape:window-x="-8"
     inkscape:window-y="-8"
     inkscape:window-maximized="1"
     inkscape:current-layer="svg62" /><g
     data-paper-data="{&quot;isIcon&quot;:&quot;true&quot;,&quot;iconType&quot;:&quot;icon&quot;,&quot;rawIconId&quot;:&quot;154216&quot;,&quot;selectedEffects&quot;:{&quot;container&quot;:&quot;&quot;,&quot;transformation&quot;:&quot;&quot;,&quot;pattern&quot;:&quot;&quot;},&quot;combineTerms&quot;:&quot;hotel&quot;,&quot;isDetailed&quot;:false,&quot;fillRule&quot;:&quot;evenodd&quot;,&quot;bounds&quot;:{&quot;x&quot;:95.06446162852099,&quot;y&quot;:170.97970924222486,&quot;width&quot;:99.9418198207997,&quot;height&quot;:128.04058151555037},&quot;iconStyle&quot;:&quot;standalone&quot;,&quot;suitableAsStandaloneIcon&quot;:true}"
     fill-rule="evenodd"
     id="g202"
     transform="matrix(3.9655114,0,0,3.9655114,-376.9792,-570.19064)"
     style="font-family:none;mix-blend-mode:normal;fill:#5c068c;fill-opacity:1;stroke:none;stroke-width:1;stroke-linecap:butt;stroke-linejoin:miter;stroke-miterlimit:10;stroke-dasharray:none;stroke-dashoffset:0"><path
       d="m 145.03884,170.97971 c -0.81854,2.51678 -1.67878,5.16559 -2.54319,7.82274 -1.74174,-0.004 -3.57659,-2.6e-4 -5.35029,0.003 -0.99032,0.002 -1.96145,0.004 -2.88659,0.004 2.23051,1.62042 4.52076,3.28808 6.65816,4.83901 -0.83522,2.57932 -1.74688,5.37683 -2.54319,7.8283 2.13322,-1.55788 4.40264,-3.19219 6.66371,-4.83345 2.38893,1.73437 4.47768,3.25056 6.65816,4.83345 -0.82828,-2.53346 -1.67878,-5.1642 -2.54319,-7.8283 2.19854,-1.59123 4.57496,-3.32283 6.66371,-4.83901 h -8.22993 z m -26.1087,9.2889 c -0.72404,2.22772 -1.48561,4.57079 -2.24996,6.92359 -1.43141,-0.003 -2.93328,0 -4.39666,0.002 -0.99324,0.002 -1.96868,0.003 -2.89242,0.003 1.97341,1.4342 4.00101,2.91007 5.89242,4.28173 -0.73933,2.28331 -1.54537,4.75979 -2.24996,6.92915 1.88863,-1.37861 3.89678,-2.82531 5.89798,-4.27756 2.11515,1.53425 3.96348,2.87673 5.89242,4.27756 -0.73239,-2.24162 -1.48561,-4.57079 -2.24996,-6.92915 1.94561,-1.40918 4.04965,-2.94065 5.89798,-4.28173 h -7.28492 z m 52.21184,0 c -0.72404,2.22772 -1.48561,4.57079 -2.24996,6.92359 -1.43141,-0.003 -2.93328,0 -4.39666,0.002 -0.99324,0.002 -1.96868,0.003 -2.89242,0.003 1.97341,1.4342 4.00101,2.91007 5.89242,4.28173 -0.73933,2.28331 -1.54537,4.75979 -2.24996,6.92915 1.88863,-1.37861 3.89678,-2.82531 5.89798,-4.27756 2.11515,1.53425 3.96348,2.87673 5.89242,4.27756 -0.73239,-2.24162 -1.48561,-4.57079 -2.24996,-6.92915 1.94561,-1.40918 4.04965,-2.94065 5.89798,-4.28173 h -7.28492 z m -26.15039,16.43762 c -21.88394,0 -33.26437,17.05327 -33.0712,34.10654 0.26822,24.82181 24.81347,34.10654 33.0712,68.20752 8.27579,-34.10654 33.11706,-43.93048 33.11706,-68.20752 0,-17.05327 -12.85353,-34.10654 -33.10594,-34.10654 z m -41.04403,4.35816 c -0.67541,2.07346 -1.38416,4.25672 -2.0957,6.44692 -1.33288,-0.002 -2.73136,0 -4.09398,0.002 -0.92486,0.002 -1.83318,0.003 -2.69342,0.003 1.83721,1.33552 3.72584,2.70996 5.48662,3.98711 -0.68791,2.12627 -1.43836,4.43182 -2.0957,6.45109 1.758,-1.28271 3.62856,-2.63074 5.49218,-3.98294 1.96923,1.42863 3.68971,2.67799 5.48662,3.98294 -0.68235,-2.08736 -1.38416,-4.25533 -2.0957,-6.45109 1.81081,-1.3119 3.77031,-2.73775 5.49218,-3.98711 h -6.78323 z m 82.17561,0 c -0.67541,2.07346 -1.38416,4.25672 -2.0957,6.44692 -1.33288,-0.002 -2.73136,0 -4.09398,0.002 -0.92486,0.002 -1.83318,0.003 -2.69342,0.003 1.83721,1.33552 3.72584,2.70996 5.48662,3.98711 -0.68791,2.12627 -1.43836,4.43182 -2.0957,6.45109 1.758,-1.28271 3.62856,-2.63074 5.49218,-3.98294 1.96923,1.42863 3.68971,2.67799 5.48662,3.98294 -0.68235,-2.08736 -1.38416,-4.25533 -2.0957,-6.45109 1.81081,-1.3119 3.77031,-2.73775 5.49218,-3.98711 h -6.78323 z m -41.08572,4.16778 19.32686,19.32686 H 125.7106 Z m -13.67625,21.74775 h 27.31914 v 27.3525 H 131.3612 Z m 4.65418,4.65417 v 7.67404 h 7.6393 v -7.67404 z m 10.37427,0 v 7.67404 h 7.67404 v -7.67404 z m -10.37427,10.37428 v 7.67404 h 7.6393 v -7.67404 z m 10.37427,0 v 7.67404 h 7.67404 v -7.67404 z"
       data-paper-data="{&quot;isPathIcon&quot;:true}"
       id="path200"
       style="fill:#5c068c;fill-opacity:1" /></g><path
     d="M 416.11853,678.40908 V 45 h 26.35602 v 633.40908 z"
     data-paper-data="{&quot;isShapeTextSeparator&quot;:true}"
     fill-rule="nonzero"
     id="path204"
     style="font-family:none;mix-blend-mode:normal;fill:#5c068c;fill-opacity:1;stroke:none;stroke-width:9.00339;stroke-linecap:butt;stroke-linejoin:miter;stroke-miterlimit:10;stroke-dasharray:none;stroke-dashoffset:0" /><g
     fill="#5c068c"
     fill-rule="nonzero"
     stroke="none"
     stroke-width="1"
     stroke-linecap="butt"
     stroke-linejoin="miter"
     stroke-miterlimit="10"
     stroke-dasharray="none"
     stroke-dashoffset="0"
     font-family="none"
     font-weight="none"
     font-size="none"
     text-anchor="none"
     style="mix-blend-mode:normal"
     id="g384"
     transform="matrix(3.9655114,0,0,3.9655114,-243.94636,-570.19067)"><g
       data-paper-data="{&quot;isGlobalGroup&quot;:true,&quot;bounds&quot;:{&quot;x&quot;:188.15949613629942,&quot;y&quot;:191.0363024303175,&quot;width&quot;:173.68100772740115,&quot;height&quot;:87.92739513936493}}"
       id="g382"><g
         data-paper-data="{&quot;isPrimaryText&quot;:true}"
         id="g380"><path
           d="m 266.36437,216.84733 c -2.18905,1.75982 -4.72148,2.61828 -7.51145,2.61828 H 252.715 c -3.9918,-0.0429 -6.00916,-0.0429 -6.05208,-0.0429 v -12.44754 c 0,-3.90595 1.50229,-7.0393 4.50687,-9.48588 2.96166,-2.44658 6.35254,-3.26211 10.12972,-2.48951 2.27489,0.47215 4.24933,1.50229 5.92331,3.09042 1.67398,1.58813 2.78997,3.51965 3.39088,5.7087 0.60092,2.27489 0.64384,4.42102 0.0858,6.43838 -0.72968,2.70412 -2.14613,4.89317 -4.33518,6.61007 z m -62.4523,58.4605 c -2.70412,0 -5.10778,-0.81553 -7.25391,-2.40366 -2.1032,-1.58813 -3.51965,-3.64842 -4.33518,-6.18085 -0.81553,-2.57535 -0.85845,-5.02194 -0.12877,-7.38268 0.81553,-2.53243 2.27489,-4.63563 4.42102,-6.26669 2.18905,-1.67398 4.63563,-2.48951 7.33975,-2.48951 4.89317,0 8.92789,0 12.14708,0.0429 0,8.28405 0,12.44754 0,12.44754 0,2.70412 -0.77261,5.10778 -2.31782,7.21099 -1.58813,2.14613 -3.60549,3.64842 -6.13792,4.46394 -1.24475,0.3863 -2.48951,0.55799 -3.73426,0.55799 z m 66.14364,-79.49255 c -2.44658,-2.53243 -5.3224,-4.03472 -8.58451,-4.59271 -3.0475,-0.47215 -6.00916,-0.0429 -8.92789,1.24475 -2.87581,1.24475 -5.15071,3.13335 -6.91053,5.66578 -1.84567,2.70412 -2.70412,5.66578 -2.57535,8.88497 v 12.40461 H 231.7688 c -3.34796,-0.0429 -6.18085,-1.20183 -8.49866,-3.47673 -2.31782,-2.27489 -3.47673,-5.02194 -3.51965,-8.24113 0,-4.3781 -1.54521,-8.11236 -4.63563,-11.24571 -3.09042,-3.09042 -6.82468,-4.63563 -11.15986,-4.63563 -4.33518,0 -8.06944,1.54521 -11.15986,4.63563 -3.09042,3.13335 -4.63563,6.86761 -4.63563,11.24571 0,37.29969 0,55.971 0,55.971 0.17169,4.24933 1.80275,7.89775 4.85025,10.8594 3.09042,3.00458 6.78176,4.46394 11.11694,4.42102 4.42102,-0.0429 8.15528,-1.63106 11.28863,-4.85025 3.0475,-3.13335 4.50687,-6.82468 4.42102,-11.07402 V 250.7132 h 11.11694 c 3.60549,0 6.43838,0.77261 8.54159,2.27489 2.44658,1.80275 3.64842,4.54979 3.64842,8.24113 0,1.15891 0,1.97444 0.0429,2.36074 0.34338,4.12056 2.01736,7.59729 5.02194,10.38726 3.0475,2.83289 6.61007,4.24933 10.73064,4.24933 4.33518,0 8.06944,-1.54521 11.15986,-4.63563 3.09042,-3.13335 4.63563,-6.86761 4.63563,-11.24571 0,-35.15356 -0.0429,-53.82487 -0.0858,-56.01392 -0.12877,-4.07764 -1.67398,-7.55437 -4.59271,-10.51602 z"
           data-paper-data="{&quot;glyphName&quot;:&quot;H&quot;,&quot;glyphIndex&quot;:0,&quot;firstGlyphOfWord&quot;:true,&quot;word&quot;:1}"
           id="path376" /><path
           d="m 353.28252,204.65732 c 3.26211,3.13335 4.89317,6.61007 4.89317,10.43018 0,3.13335 -0.90137,5.88039 -2.70412,8.24113 -1.67398,2.18905 -3.86303,3.69134 -6.56715,4.59271 -2.6612,0.90137 -5.3224,1.03014 -7.98359,0.34338 -2.83289,-0.72968 -5.19363,-2.31782 -7.0393,-4.67856 -0.0429,-0.0429 -0.72968,-1.07306 -2.06028,-3.17627 -1.3306,-2.06028 -2.61828,-3.86303 -3.86303,-5.45116 -4.07764,-5.15071 -8.3699,-8.62743 -12.83384,-10.43018 -3.00458,-1.20183 -6.05208,-1.54521 -9.18542,-1.03014 -3.13335,0.55799 -5.88039,1.84567 -8.15528,3.94887 7.89775,-8.49866 17.64117,-12.748 29.18733,-12.748 10.68771,0 19.48683,3.30504 26.31152,9.95803 z m -8.84204,32.79283 c -4.29225,0 -8.02652,1.45937 -11.24571,4.3781 -2.91873,2.70412 -6.22377,3.26211 -9.91511,1.63106 -3.64842,-1.58813 -5.49409,-4.42102 -5.49409,-8.45574 0,-2.57535 0.90137,-4.7644 2.70412,-6.56715 1.80275,-1.80275 3.94887,-2.70412 6.4813,-2.70412 1.54521,0 3.47673,0.64384 5.75162,1.97444 3.21919,3.09042 7.12514,4.63563 11.63201,4.63563 3.9918,0 7.46852,-1.11599 10.4731,-3.34796 2.78997,-2.1032 4.80732,-4.80732 6.00916,-8.15528 1.15891,-3.39088 1.3306,-6.73884 0.42923,-10.12972 -0.98722,-3.64842 -3.00458,-6.78176 -6.13792,-9.31419 -7.51145,-6.91053 -16.86856,-10.34433 -28.15719,-10.34433 -12.14708,0 -22.44849,4.33518 -30.99008,13.00553 -8.45574,8.58451 -12.66215,18.88592 -12.66215,30.94715 0,12.44754 4.46394,23.00648 13.39183,31.67684 9.01373,8.71328 19.78729,12.79092 32.32067,12.23292 7.89775,-0.34338 15.15166,-2.6612 21.71881,-6.91053 7.33975,-4.7644 11.03109,-10.4731 11.03109,-17.12609 0,-5.02194 -1.80275,-9.22835 -5.36532,-12.61923 -3.39088,-3.21919 -7.38268,-4.80732 -11.97539,-4.80732 z"
           data-paper-data="{&quot;glyphName&quot;:&quot;C&quot;,&quot;glyphIndex&quot;:1,&quot;lastGlyphOfWord&quot;:true,&quot;word&quot;:1}"
           id="path378" /></g></g></g></svg>
