<?xml version="1.0" encoding="UTF-8" standalone="no"?>
<svg
   svg:contrastcolor="ffffff"
   svg:template="BlackAndHighlightColorHex1"
   svg:presentation="2.5"
   svg:layouttype="undefined"
   svg:specialfontid="undefined"
   svg:id1="800"
   svg:id2="1048"
   svg:companyname="Hotel Center"
   svg:companytagline=""
   version="1.1"
   viewBox="0 45 380 380"
   id="svg62"
   sodipodi:docname="hotelcenter.svg"
   width="380"
   height="380"
   inkscape:version="1.2.2 (732a01da63, 2022-12-09)"
   xmlns:inkscape="http://www.inkscape.org/namespaces/inkscape"
   xmlns:sodipodi="http://sodipodi.sourceforge.net/DTD/sodipodi-0.dtd"
   xmlns="http://www.w3.org/2000/svg"
   xmlns:svg="http://www.w3.org/2000/svg">
  <defs
     id="defs66" />
  <sodipodi:namedview
     id="namedview64"
     pagecolor="#ffffff"
     bordercolor="#000000"
     borderopacity="0.25"
     inkscape:showpageshadow="2"
     inkscape:pageopacity="0.0"
     inkscape:pagecheckerboard="0"
     inkscape:deskcolor="#d1d1d1"
     showgrid="false"
     inkscape:zoom="1.5815789"
     inkscape:cx="190"
     inkscape:cy="190.31614"
     inkscape:window-width="1366"
     inkscape:window-height="705"
     inkscape:window-x="-8"
     inkscape:window-y="-8"
     inkscape:window-maximized="1"
     inkscape:current-layer="svg62" />
  <g
     fill="#ad1aac"
     fill-rule="none"
     stroke="none"
     stroke-width="1"
     stroke-linecap="butt"
     stroke-linejoin="miter"
     stroke-miterlimit="10"
     stroke-dasharray="none"
     stroke-dashoffset="0"
     font-family="none"
     font-weight="none"
     font-size="none"
     text-anchor="none"
     style="mix-blend-mode:normal"
     id="g32"
     transform="translate(-84.999991,-1.05e-4)">
    <g
       data-paper-data="{&quot;isGlobalGroup&quot;:true,&quot;bounds&quot;:{&quot;x&quot;:170.39262734984484,&quot;y&quot;:115,&quot;width&quot;:209.21474530031034,&quot;height&quot;:240}}"
       id="g30">
      <g
         data-paper-data="{&quot;isSecondaryText&quot;:true}"
         fill-rule="nonzero"
         id="g14">
        <path
           d="m 220.36022,340.91078 -0.0578,-0.0193 -0.0771,-0.0771 -0.0386,-0.0193 -0.0385,-0.0385 h -0.0386 c -0.0193,0 -0.0578,0 -0.0964,0.0193 l -0.0578,-0.0578 -0.0385,-0.0193 -0.0578,-0.0386 h -0.0386 c -0.0193,0 -0.0578,0.0193 -0.0964,0.0386 -0.0385,-0.0193 -0.0771,-0.0386 -0.0964,-0.0771 l -0.0578,-0.0385 c -0.0193,-0.0193 -0.0578,-0.0193 -0.0771,-0.0193 -0.0578,0 -0.17347,0.0964 -0.32766,0.26983 -0.15419,0.21201 -0.23129,0.30838 -0.3662,0.46257 -0.11564,0.15419 -0.23129,0.28911 -0.32766,0.40475 -0.13492,0.17347 -0.32766,0.40475 -0.55894,0.69386 l -0.32766,0.38548 -0.34693,0.42403 c -0.59749,0.75168 -1.11789,1.34917 -1.52264,1.83102 -0.94442,1.23353 -1.92739,2.27432 -2.91036,3.14164 -0.75168,0.63604 -1.63828,1.38772 -2.27432,1.79247 l -0.5204,0.38548 -0.53967,0.38548 -0.55894,0.3662 c -0.21201,0.13492 -0.40475,0.25056 -0.53967,0.34693 -1.54191,0.94442 -3.08382,1.46482 -4.60646,1.46482 -0.75168,0 -1.48409,-0.13492 -2.19722,-0.40475 l -0.0771,-0.0386 h -0.0193 c -0.13492,-0.13492 -0.23129,-0.23129 -0.28911,-0.30838 -0.28911,-0.30838 -0.57822,-0.8095 -0.65531,-1.19498 -0.32766,-0.75168 -0.53967,-1.63828 -0.59749,-2.67907 -0.0193,-0.25056 -0.0193,-0.53967 -0.0193,-0.86733 0,-0.55894 0.0193,-1.21426 0.0771,-1.96594 0.15419,-1.83102 0.4433,-3.48857 0.8866,-4.97266 l 0.15419,-0.53967 0.13492,-0.55894 c 0.55894,-1.90812 1.31062,-3.79696 2.25505,-5.70507 l 0.21201,-0.4433 0.21201,-0.42403 0.25056,-0.46257 0.23129,-0.46257 0.28911,-0.53967 0.30838,-0.53967 0.55894,-0.86733 0.53967,-0.8866 c 0.0193,-0.0193 0.0964,-0.11564 0.19274,-0.25056 0.0578,-0.0771 0.0964,-0.13492 0.13492,-0.19274 l 0.17347,-0.23129 c 0.61676,-0.86733 1.13716,-1.50336 1.54191,-1.96594 l 0.34693,-0.40475 0.34693,-0.40475 c 0.57822,-0.67459 1.07934,-1.21426 1.48409,-1.61901 1.15643,-1.09861 2.15868,-1.67683 3.21874,-1.88884 l 0.23129,-0.0385 c 0.26983,0.11564 0.48185,0.26983 0.63604,0.48185 0.28911,0.34693 0.4433,0.8095 0.4433,1.38772 -0.0193,1.02152 -0.38548,2.02376 -1.02152,3.50785 -0.4433,1.02152 -0.96369,2.00448 -1.56119,2.96818 -0.3662,0.61676 -0.8866,1.40699 -1.58046,2.25505 -0.11564,0.13492 -0.23129,0.26983 -0.32766,0.40475 -0.0771,0.0771 -0.15419,0.13492 -0.17347,0.19274 -0.30838,0.28911 -0.46257,0.53967 -0.46257,0.71313 v 0.0771 c 0.0193,0.0578 0.0578,0.13492 0.11564,0.23129 l 0.0771,0.0964 0.0771,0.0964 h 0.0193 v 0.0193 l 0.0578,0.0193 0.0964,0.0578 c 0.17347,0.0771 0.32766,0.11564 0.46257,0.11564 0.17347,0 0.32766,-0.0578 0.46257,-0.15419 l 0.11564,-0.0771 c 0.17347,-0.17347 0.32766,-0.32766 0.46257,-0.46257 l 0.17347,-0.17347 c 0.0771,-0.0771 0.15419,-0.15419 0.23129,-0.23129 0.94442,-0.96369 1.85029,-2.27432 2.71762,-3.93187 0.40475,-0.77096 0.77096,-1.58046 1.11789,-2.42851 0.71313,-1.7732 0.96369,-2.73689 0.96369,-3.75841 v -0.25056 c -0.0193,-0.71313 -0.23129,-1.44554 -0.5204,-1.92739 -0.67459,-1.07934 -1.94666,-1.65755 -3.19947,-1.71538 h -0.21201 c -0.21201,0 -0.4433,0.0193 -0.65531,0.0385 l -0.42403,0.0771 -0.40475,0.0964 c -0.46257,0.11564 -0.96369,0.30838 -1.48409,0.59749 -0.75168,0.42403 -1.56119,1.04079 -2.40924,1.85029 -0.30838,0.28911 -0.63604,0.63604 -1.00224,1.02152 l -0.46257,0.5204 -0.46257,0.5204 c -1.83102,2.02376 -3.41148,4.54864 -5.18468,7.96012 -0.15419,0.28911 -0.30838,0.61676 -0.48185,1.00224 l -0.4433,1.00224 c -0.77096,1.7732 -1.50336,3.8355 -1.98521,5.76289 -0.50112,1.96594 -0.8095,3.85478 -0.90587,5.6858 -0.0193,0.3662 -0.0385,0.75168 -0.0385,1.13716 0,0.25056 0,0.5204 0.0193,0.77096 0.0578,1.23353 0.30838,3.08382 1.07934,4.39445 0.69386,1.36845 1.86957,2.2165 3.27656,2.62125 l 0.11564,0.0386 0.13492,0.0385 c 0.13492,0.0385 0.25056,0.0771 0.3662,0.0964 0.69386,0.15419 1.31062,0.19274 1.85029,0.19274 0.71313,0 1.48409,-0.0964 2.27432,-0.26983 l 0.4433,-0.11564 0.4433,-0.15419 c 0.13492,-0.0385 0.28911,-0.0964 0.46257,-0.17347 l 0.4433,-0.21201 0.4433,-0.21201 0.4433,-0.23129 0.46257,-0.25056 0.4433,-0.26983 c 1.09861,-0.69386 2.23577,-1.54191 3.43075,-2.52488 1.96594,-1.63828 3.71986,-3.52712 5.28105,-5.62798 0.63604,-0.82878 1.15643,-1.54191 1.56119,-2.1394 0.15419,-0.23129 0.30838,-0.46257 0.4433,-0.67459 0.0385,-0.0771 0.0771,-0.15419 0.11564,-0.21201 l 0.0386,-0.0771 0.0385,-0.0385 c 0.21201,-0.42403 0.32766,-0.69386 0.32766,-0.8095 v -0.0193 c 0,-0.0193 -0.0385,-0.0578 -0.0964,-0.0771 z"
           data-paper-data="{&quot;glyphName&quot;:&quot;C&quot;,&quot;glyphIndex&quot;:0,&quot;firstGlyphOfWord&quot;:true,&quot;word&quot;:1}"
           id="path2" />
        <path
           d="m 221.40101,340.73732 c 0.21201,-0.28911 0.5204,-0.59749 0.94442,-0.92515 0.0193,-0.0193 0.0386,-0.0385 0.0578,-0.0578 l 0.0578,-0.0385 0.11564,-0.0771 c 0.0964,-0.0578 0.17347,-0.0771 0.25056,-0.0964 0.0193,-0.0193 0.0578,-0.0193 0.0771,-0.0193 0.0385,0 0.0771,0 0.0964,0.0193 l 0.0578,0.0193 c 0.0771,0.0193 0.0771,0.0964 0.0964,0.30838 l -0.0193,0.11564 -0.0386,0.0964 c -0.0193,0.0771 -0.0385,0.15419 -0.0578,0.23129 0,0.0193 -0.0193,0.0578 -0.0578,0.11564 l -0.0386,0.0964 -0.0578,0.0964 c -0.11564,0.21201 -0.23129,0.40475 -0.34693,0.57822 -0.32766,0.48185 -0.73241,0.94442 -1.21426,1.40699 -0.48185,0.48185 -1.06006,0.92515 -1.59973,1.3299 l -0.0193,-0.0193 c 0.0193,-0.0193 0.0193,-0.0578 0.0385,-0.11564 l 0.0386,-0.0964 0.0385,-0.11564 c 0.0771,-0.21201 0.17347,-0.40475 0.26983,-0.61676 0.30838,-0.67459 0.75168,-1.42627 1.31062,-2.23577 z m 6.34111,-0.55894 -0.0578,-0.0385 -0.0771,-0.0578 -0.0578,-0.0386 -0.0578,-0.0385 c -0.0385,-0.0193 -0.0771,-0.0193 -0.0964,-0.0193 h -0.0386 c -0.0385,0.0193 -0.0771,0.0193 -0.0964,0.0385 h -0.0385 l -0.0578,0.0193 c -0.13492,0.0578 -0.28911,0.19274 -0.46257,0.42403 l -0.11564,0.13492 -0.0964,0.15419 c -0.0578,0.0964 -0.11564,0.17347 -0.17347,0.21201 l -0.0578,0.0771 -0.0771,0.0964 c -0.0578,0.0578 -0.11564,0.0964 -0.17347,0.11564 -0.11564,0.17347 -0.26983,0.3662 -0.46257,0.57822 l -0.26983,0.26983 -0.25056,0.26983 -0.0964,0.0964 -0.0964,0.11564 -0.23129,0.23129 c -0.17347,0.17347 -0.34693,0.32766 -0.50112,0.4433 -0.0193,0.0193 -0.0578,0.0578 -0.0964,0.11564 l -0.0386,0.0578 -0.0578,0.0578 c -0.15419,0.13492 -0.34693,0.30838 -0.59749,0.5204 l -0.28911,0.25056 c -0.11564,0.0964 -0.21201,0.17347 -0.26983,0.23129 l -0.19274,0.15419 -0.0964,0.0771 -0.0964,0.0964 c -0.0578,0.0578 -0.13492,0.11564 -0.21201,0.21201 -0.17347,0.11564 -0.30838,0.23129 -0.40475,0.32766 -0.0193,0.0193 -0.0771,0.0578 -0.17347,0.11564 l -0.0578,0.0385 -0.0771,0.0578 c -0.0578,0.0386 -0.11564,0.0771 -0.17347,0.11564 -0.63604,0.4433 -1.23353,0.73241 -1.67683,0.79023 h -0.15419 l -0.0385,-0.0385 c -0.13492,-0.15419 -0.23129,-0.40475 -0.23129,-0.55894 v -0.0578 l 0.0193,-0.0578 v -0.15419 c 0.0193,-0.11564 0.0578,-0.21201 0.0964,-0.26983 l 0.0578,-0.30838 0.0385,-0.0193 c 0.0578,-0.0193 0.11564,-0.0193 0.15419,-0.0193 l 0.0771,-0.0193 0.0771,-0.0193 c 0.26983,-0.0193 0.63604,-0.19274 1.07934,-0.48185 0.15419,-0.0964 0.32766,-0.21201 0.53967,-0.38548 l 0.13492,-0.0771 0.11564,-0.0964 c 0.0771,-0.0578 0.13492,-0.11564 0.19274,-0.15419 l 0.17347,-0.11564 0.15419,-0.13492 c 0.13492,-0.0964 0.25056,-0.17347 0.34693,-0.23129 0.94442,-0.90587 1.58046,-1.71538 1.90812,-2.38996 0.25056,-0.5204 0.38548,-0.98297 0.4433,-1.42627 l 0.0193,-0.0578 c 0.0193,-0.0193 0.0193,-0.0578 0.0386,-0.0771 0.0385,-0.0578 0.0578,-0.15419 0.0578,-0.28911 v -0.11564 c 0,-0.11564 -0.0193,-0.23129 -0.0385,-0.32766 -0.0771,-0.32766 -0.25056,-0.57822 -0.5204,-0.79023 -0.40475,-0.28911 -0.8095,-0.38548 -1.19498,-0.40475 h -0.0964 c -0.11564,0 -0.25056,0.0193 -0.38548,0.0386 l -0.23129,0.0385 c -0.0771,0.0193 -0.13492,0.0193 -0.19274,0.0193 -0.11564,0.0578 -0.23129,0.13492 -0.34693,0.19274 l -0.15419,0.0964 -0.11564,0.0771 -0.23129,0.17347 -0.21201,0.17347 c -0.55894,0.4433 -0.90587,0.8095 -1.36845,1.36845 l -0.28911,0.3662 -0.28911,0.3662 c -0.0193,0.0386 -0.0578,0.0964 -0.0964,0.17347 l -0.0578,0.0964 -0.0385,0.0771 c -0.48185,0.71313 -0.86733,1.31062 -1.11789,1.79247 l -0.15419,0.30838 -0.0771,0.15419 -0.0578,0.17347 c -0.0578,0.13492 -0.11564,0.26983 -0.15419,0.42403 -0.13492,0.28911 -0.21201,0.5204 -0.23129,0.73241 -0.0193,0.0193 -0.0193,0.0578 -0.0385,0.11564 -0.0193,0.0578 -0.0386,0.13492 -0.0578,0.19274 -0.0771,0.38548 -0.11564,0.73241 -0.11564,1.02152 0,0.13492 0,0.26983 0.0193,0.40475 0.0771,0.67459 0.38548,1.31062 0.90587,1.71538 0.46257,0.40475 1.04079,0.55894 1.48409,0.55894 0.17347,0 0.3662,-0.0386 0.57822,-0.11564 l 0.28911,-0.11564 0.26983,-0.11564 c 0.67459,-0.26983 1.23353,-0.55894 1.67683,-0.8866 0.25056,-0.17347 0.50112,-0.38548 0.75168,-0.61676 l 0.15419,-0.17347 0.15419,-0.17347 c 0.13492,-0.13492 0.26983,-0.25056 0.3662,-0.30838 0.0386,-0.0193 0.0771,-0.0578 0.11564,-0.11564 l 0.0578,-0.0578 0.0578,-0.0578 c 0.53967,-0.4433 0.94442,-0.8095 1.23353,-1.09861 l 0.19274,-0.17347 0.0964,-0.11564 0.0771,-0.0964 c 0.0771,-0.0771 0.15419,-0.17347 0.21201,-0.26983 0.17347,-0.17347 0.28911,-0.30838 0.34693,-0.4433 0.0578,-0.0578 0.19274,-0.21201 0.40475,-0.50112 0.46257,-0.63604 0.84805,-1.2528 1.17571,-1.88884 0.15419,-0.28911 0.23129,-0.4433 0.25056,-0.50112 v -0.0385 c 0,-0.13492 -0.0578,-0.13492 -0.15419,-0.21201 z"
           data-paper-data="{&quot;glyphName&quot;:&quot;e&quot;,&quot;glyphIndex&quot;:1,&quot;word&quot;:1}"
           id="path4" />
        <path
           d="m 239.0559,340.31329 -0.0578,-0.0385 -0.0578,-0.0771 -0.0578,-0.0578 -0.0578,-0.0385 c -0.0193,-0.0193 -0.0386,-0.0193 -0.0578,-0.0193 -0.0385,0 -0.0964,0.0193 -0.15419,0.0578 -0.0771,0.0578 -0.23129,0.13492 -0.4433,0.26983 -0.4433,0.25056 -2.25505,1.96594 -2.46706,2.19722 -0.0385,0.0578 -0.0964,0.13492 -0.19274,0.23129 l -0.21201,0.26983 c -0.17347,0.21201 -0.30838,0.34693 -0.40475,0.4433 l -0.4433,0.61676 -0.46257,0.61676 0.0578,-0.11564 c 0.0193,-0.0193 0.0193,-0.0578 0.0385,-0.11564 v -0.0771 l 0.0193,-0.0578 0.13492,-0.34693 0.13492,-0.34693 c 0.0964,-0.28911 0.17347,-0.5204 0.23129,-0.67459 l 0.0771,-0.23129 0.0386,-0.11564 0.0385,-0.11564 c 0.0193,-0.0964 0.0386,-0.19274 0.0578,-0.30838 0.0771,-0.19274 0.11564,-0.3662 0.13492,-0.50112 0,-0.0193 0,-0.0386 0.0193,-0.0771 0.0193,-0.0385 0.0193,-0.0771 0.0385,-0.11564 0.0386,-0.13492 0.0771,-0.26983 0.0964,-0.42403 0.0964,-0.38548 0.11564,-0.69386 0.11564,-0.90587 0,-0.11564 0,-0.23129 -0.0193,-0.32766 -0.0578,-0.5204 -0.17347,-0.92515 -0.34693,-1.2528 -0.0578,-0.11564 -0.13492,-0.21201 -0.21201,-0.30838 -0.13492,-0.13492 -0.28911,-0.28911 -0.46257,-0.42403 -0.28911,-0.17347 -0.77096,-0.28911 -1.06006,-0.28911 -0.0964,0 -0.17347,0 -0.26983,0.0193 -0.25056,0.0193 -0.48185,0.0964 -0.71313,0.23129 -0.0771,0.0386 -0.15419,0.0771 -0.23129,0.13492 l -0.23129,0.15419 c -0.32766,0.23129 -0.61676,0.5204 -0.82878,0.84805 -0.0385,0.0578 -0.0771,0.0964 -0.13492,0.15419 l -0.0578,0.0964 -0.0578,0.0771 -0.23129,0.30838 c -0.17347,0.23129 -0.30838,0.4433 -0.42403,0.65531 -0.32766,0.4433 -1.27208,1.81175 -2.79471,4.10534 l -0.13492,0.17347 c 0.0578,-0.17347 0.13492,-0.30838 0.19274,-0.4433 0.0193,-0.0385 0.0385,-0.0964 0.0578,-0.15419 l 0.0193,-0.0771 0.0193,-0.0771 0.15419,-0.40475 0.15419,-0.38548 c 0.13492,-0.32766 0.25056,-0.59749 0.30838,-0.77096 l 0.0964,-0.25056 0.0386,-0.13492 0.0385,-0.15419 c 0.0386,-0.0964 0.0578,-0.19274 0.0771,-0.32766 0.0964,-0.21201 0.15419,-0.40475 0.17347,-0.55894 0.0385,-0.0771 0.11564,-0.28911 0.21201,-0.63604 0.23129,-0.69386 0.42403,-1.59973 0.5204,-2.37069 l 0.0964,-0.61676 c 0.0193,-0.0193 0.0193,-0.0386 0.0193,-0.0578 0,-0.0964 -0.21201,-0.11564 -0.4433,-0.13492 h -0.11564 l -0.11564,-0.0193 h -0.17347 c -0.0964,0.0193 -0.19274,0.0193 -0.26983,0.0193 -0.25056,0 -0.38548,0.0193 -0.42403,0.0578 l -0.0386,0.0193 c -0.15419,0.0193 -0.25056,0.0385 -0.26983,0.0578 -0.0193,0.0193 -0.0193,0.0385 -0.0386,0.0578 l -0.0193,0.0193 c -0.0193,0.0193 -0.0386,0.0385 -0.0578,0.0578 -0.0964,0.0964 -0.15419,0.26983 -0.17347,0.53967 -0.0193,0.40475 -0.15419,0.92515 -0.3662,1.56119 l -0.13492,0.38548 -0.15419,0.38548 c -0.11564,0.32766 -0.21201,0.57822 -0.26983,0.75168 -0.13492,0.40475 -0.32766,0.98297 -0.55894,1.71538 l -0.26983,0.86733 -0.28911,0.84805 c -0.30838,0.90587 -0.50112,1.73465 -0.59749,2.46706 -0.0386,0.28911 -0.0578,0.55894 -0.0578,0.8095 0,0.28911 0.0193,0.57822 0.0964,0.8095 v 0.0578 c 0,0.17347 0.15419,0.26983 0.30838,0.3662 l 0.0964,0.0578 0.0578,0.0385 c 0.0193,0 0.0386,0 0.0771,0.0193 l 0.0386,0.0193 0.0578,0.0193 c 0.17347,0.0771 0.42403,0.17347 0.59749,0.17347 0.0578,0 0.11564,-0.0193 0.13492,-0.0385 0.0578,-0.0578 0.11564,-0.11564 0.17347,-0.17347 l 0.0578,-0.0578 c 0.0193,-0.0193 0.0578,-0.0578 0.0964,-0.0771 0.25056,-0.23129 0.61676,-0.71313 1.07934,-1.44554 l 0.26983,-0.4433 0.13492,-0.21201 0.13492,-0.21201 c 0.19274,-0.32766 0.34693,-0.55894 0.46257,-0.71313 0.0386,-0.0578 0.0964,-0.13492 0.17347,-0.23129 l 0.19274,-0.26983 c 0.15419,-0.21201 0.28911,-0.3662 0.38548,-0.46257 l 0.61676,-0.94442 0.61676,-0.92515 c 0.46257,-0.71313 0.86733,-1.31062 1.23353,-1.79247 0.13492,-0.21201 0.28911,-0.4433 0.46257,-0.71313 l 0.23129,-0.3662 0.0964,-0.15419 0.0964,-0.13492 c 0.17347,-0.21201 0.34693,-0.38548 0.5204,-0.48185 0.0578,-0.0578 0.13492,-0.0771 0.19274,-0.0771 0.0964,0 0.21201,0.0578 0.28911,0.19274 l 0.0193,0.0385 0.0193,0.0578 c 0,0.0193 0,0.0578 0.0193,0.15419 v 0.23129 c 0,0.15419 -0.0193,0.30838 -0.0578,0.48185 -0.0386,0.21201 -0.13492,0.57822 -0.30838,1.06006 l -0.19274,0.53967 -0.19274,0.53967 c -0.15419,0.4433 -0.26983,0.79023 -0.34693,1.04079 l -0.23129,0.69386 c -0.0193,0.0771 -0.0578,0.19274 -0.11564,0.3662 l -0.11564,0.38548 c -0.15419,0.5204 -0.23129,0.98297 -0.23129,1.34917 v 0.19274 c 0,0.25056 0.0386,0.46257 0.11564,0.65531 0.13492,0.28911 0.34693,0.48185 0.65531,0.50112 h 0.17347 c 0.0578,0 0.17347,-0.0193 0.26983,-0.0385 0.15419,-0.0386 0.30838,-0.0964 0.46257,-0.17347 0.4433,-0.21201 0.84805,-0.55894 1.21426,-1.04079 0.0578,-0.0964 0.13492,-0.21201 0.21201,-0.32766 l 0.0964,-0.15419 0.11564,-0.15419 c 0.0964,-0.17347 0.25056,-0.38548 0.42403,-0.65531 0.26983,-0.40475 0.57822,-0.84805 0.94442,-1.34917 0.59749,-0.82878 2.71762,-3.04528 2.77544,-3.1031 0.0771,-0.13492 0.11564,-0.25056 0.11564,-0.30838 0,-0.0193 0,-0.0385 -0.0193,-0.0578 -0.0193,-0.0193 -0.0386,-0.0578 -0.0964,-0.0964 z"
           data-paper-data="{&quot;glyphName&quot;:&quot;n&quot;,&quot;glyphIndex&quot;:2,&quot;word&quot;:1}"
           id="path6" />
        <path
           d="m 249.05905,330.88836 v -0.11564 l -0.0193,-0.0771 v -0.28911 c -0.0193,-0.0578 -0.0386,-0.0964 -0.0771,-0.11564 -0.0193,-0.0193 -0.0578,-0.0578 -0.0771,-0.0771 l -0.0386,-0.0193 -0.0578,-0.0193 c -0.13492,-0.0964 -0.32766,-0.13492 -0.59749,-0.13492 h -0.0964 l -0.21201,0.0193 h -0.17347 c -0.13492,0.0193 -0.25056,0.0193 -0.30838,0.0193 l -0.13492,-0.0193 h -0.11564 c -0.0964,0 -0.17347,-0.0193 -0.23129,-0.0385 -0.13492,0.0193 -0.32766,0.0193 -0.53967,0.0193 h -0.30838 l -0.42403,-0.0193 h -1.42627 l 0.34693,-0.8095 c 0.46257,-1.15643 1.52264,-3.58494 1.73465,-3.81623 0.0771,-0.0964 0.11564,-0.17347 0.11564,-0.25056 0,-0.15419 -0.11564,-0.23129 -0.28911,-0.3662 l -0.11564,-0.0578 -0.11564,-0.0771 h -0.0386 l -0.0385,-0.0193 c -0.0578,-0.0193 -0.0964,-0.0385 -0.15419,-0.0578 -0.13492,-0.0578 -0.26983,-0.0771 -0.3662,-0.0964 -0.21201,-0.0193 -0.30838,-0.0386 -0.40475,-0.0386 -0.15419,0 -0.25056,0.0964 -0.34693,0.23129 l -0.0771,0.0578 c -0.0193,0.0193 -0.0578,0.0578 -0.0771,0.11564 -0.25056,0.25056 -0.53967,0.75168 -0.86733,1.50336 l -0.19274,0.4433 -0.17347,0.4433 c -0.13492,0.32766 -0.25056,0.57822 -0.32766,0.73241 l -0.11564,0.25056 -0.13492,0.28911 c -0.0964,0.21201 -0.19274,0.38548 -0.28911,0.48185 l -0.38548,1.00224 h -0.17347 l -0.79023,0.0193 -0.8095,0.0193 c -0.67459,0.0193 -1.21426,0.0385 -1.59973,0.0385 l -1.29135,-0.0193 h -0.30838 c -0.15419,0 -0.26983,-0.0193 -0.32766,-0.0578 -0.0193,-0.0193 -0.0193,-0.0193 -0.0386,-0.0193 -0.0964,0 -0.11564,0.21201 -0.13492,0.4433 l -0.0193,0.13492 -0.0193,0.11564 v 0.4433 c 0,0.26983 0.0193,0.42403 0.0578,0.4433 0.0193,0.0385 0.0578,0.0578 0.0771,0.0771 l 0.0385,0.0193 0.0386,0.0386 c 0.0964,0.0771 0.23129,0.13492 0.38548,0.15419 h 3.73914 c 0.32766,-0.0193 0.50112,-0.0771 0.5204,-0.13492 -0.17347,0.46257 -0.32766,0.86733 -0.46257,1.19498 -0.0964,0.19274 -0.17347,0.4433 -0.25056,0.75168 l -0.11564,0.38548 -0.11564,0.42403 c -0.21201,0.75168 -0.40475,1.3299 -0.57822,1.73465 -0.0385,0.0964 -0.0771,0.23129 -0.13492,0.38548 l -0.0578,0.19274 -0.0771,0.21201 c -0.67459,1.79247 -1.07934,2.94891 -1.46482,4.04752 l -0.19274,0.65531 -0.11564,0.3662 -0.0964,0.32766 c -0.0578,0.21201 -0.13492,0.50112 -0.21201,0.84805 l -0.13492,0.34693 -0.0964,0.34693 c -0.15419,0.53967 -0.19274,0.73241 -0.32766,1.29135 -0.0964,0.32766 -0.19274,0.67459 -0.28911,1.06006 -0.25056,1.04079 -0.48185,2.00448 -0.65531,2.91036 l -0.15419,0.79023 c -0.0964,0.59749 -0.17347,0.94442 -0.17347,1.34917 0,0.71313 0.28911,2.00448 1.31062,2.33214 0.17347,0.0578 0.38548,0.0964 0.63604,0.0964 0.13492,0 0.28911,-0.0193 0.46257,-0.0386 0.57822,-0.0964 1.17571,-0.3662 1.79247,-0.77096 0.82878,-0.55894 1.56119,-1.3299 2.10085,-1.92739 0.0771,-0.0964 0.15419,-0.17347 0.23129,-0.25056 0.0193,-0.0386 0.0385,-0.0771 0.0578,-0.0964 0.0193,-0.0193 0.0385,-0.0193 0.0385,-0.0385 0.13492,-0.17347 0.19274,-0.28911 0.19274,-0.34693 0,-0.0193 0,-0.0385 -0.0193,-0.0578 0,-0.0193 -0.0385,-0.0386 -0.0964,-0.0771 l -0.0578,-0.0578 -0.0578,-0.0771 -0.0578,-0.0578 -0.0578,-0.0578 c -0.0193,-0.0193 -0.0385,-0.0193 -0.0578,-0.0193 -0.0964,0 -0.26983,0.11564 -0.42403,0.21201 l -0.0964,0.0578 c -0.0386,0.0193 -0.0771,0.0385 -0.11564,0.0578 -0.17347,0.0964 -0.40475,0.28911 -0.73241,0.53967 l -0.38548,0.32766 -0.42403,0.34693 c -0.59749,0.48185 -1.09861,0.79023 -1.50336,0.8866 -0.21201,0.0578 -0.3662,0.0964 -0.50112,0.11564 h -0.13492 c -0.11564,0 -0.19274,-0.0193 -0.21201,-0.0385 -0.21201,-0.0578 -0.28911,-0.23129 -0.28911,-0.55894 0,-0.0964 0,-0.19274 0.0193,-0.28911 0.0193,-0.0578 0.0193,-0.13492 0.0385,-0.23129 l 0.0771,-0.28911 0.15419,-0.59749 0.13492,-0.57822 0.15419,-0.57822 c 0.38548,-1.54191 0.77096,-2.89108 1.17571,-4.06679 0.0385,-0.0964 0.0771,-0.25056 0.13492,-0.46257 l 0.11564,-0.46257 c 0.21201,-0.69386 0.48185,-1.52264 0.8095,-2.50561 l 0.21201,-0.61676 0.21201,-0.59749 c 0.17347,-0.5204 0.30838,-0.90587 0.38548,-1.15643 l 0.28911,-0.77096 0.13492,-0.42403 0.11564,-0.38548 0.11564,-0.32766 0.17347,-0.48185 0.25056,-0.63604 0.11564,-0.3662 0.11564,-0.32766 c 0.17347,-0.46257 0.59749,-1.54191 0.77096,-2.17795 0.0193,-0.0386 0.25056,-0.63604 0.71313,-1.79247 0,-0.0193 0.15419,-0.0193 0.4433,-0.0385 h 0.28911 c 0.0964,-0.0193 0.15419,-0.0193 0.17347,-0.0193 1.02152,-0.0771 1.92739,-0.17347 2.69834,-0.26983 0.42403,-0.0578 0.8095,-0.13492 1.17571,-0.19274 0.3662,-0.0578 0.55894,-0.0964 0.57822,-0.11564 0.0771,-0.0578 0.11564,-0.11564 0.13492,-0.17347 z"
           data-paper-data="{&quot;glyphName&quot;:&quot;t&quot;,&quot;glyphIndex&quot;:3,&quot;word&quot;:1}"
           id="path8" />
        <path
           d="m 244.91516,340.73732 c 0.21201,-0.28911 0.5204,-0.59749 0.94442,-0.92515 0.0193,-0.0193 0.0386,-0.0385 0.0578,-0.0578 l 0.0578,-0.0385 0.11564,-0.0771 c 0.0964,-0.0578 0.17347,-0.0771 0.25056,-0.0964 0.0193,-0.0193 0.0578,-0.0193 0.0771,-0.0193 0.0385,0 0.0771,0 0.0964,0.0193 l 0.0578,0.0193 c 0.0771,0.0193 0.0771,0.0964 0.0964,0.30838 l -0.0193,0.11564 -0.0386,0.0964 c -0.0193,0.0771 -0.0385,0.15419 -0.0578,0.23129 0,0.0193 -0.0193,0.0578 -0.0578,0.11564 l -0.0386,0.0964 -0.0578,0.0964 c -0.11564,0.21201 -0.23129,0.40475 -0.34693,0.57822 -0.32766,0.48185 -0.73241,0.94442 -1.21426,1.40699 -0.48185,0.48185 -1.06006,0.92515 -1.59973,1.3299 l -0.0193,-0.0193 c 0.0193,-0.0193 0.0193,-0.0578 0.0385,-0.11564 l 0.0385,-0.0964 0.0386,-0.11564 c 0.0771,-0.21201 0.17347,-0.40475 0.26983,-0.61676 0.30838,-0.67459 0.75168,-1.42627 1.31062,-2.23577 z m 6.34111,-0.55894 -0.0578,-0.0385 -0.0771,-0.0578 -0.0578,-0.0386 -0.0578,-0.0385 c -0.0385,-0.0193 -0.0771,-0.0193 -0.0964,-0.0193 h -0.0385 c -0.0385,0.0193 -0.0771,0.0193 -0.0964,0.0385 h -0.0385 l -0.0578,0.0193 c -0.13492,0.0578 -0.28911,0.19274 -0.46257,0.42403 l -0.11564,0.13492 -0.0964,0.15419 c -0.0578,0.0964 -0.11564,0.17347 -0.17347,0.21201 l -0.0578,0.0771 -0.0771,0.0964 c -0.0578,0.0578 -0.11564,0.0964 -0.17347,0.11564 -0.11564,0.17347 -0.26983,0.3662 -0.46257,0.57822 l -0.26983,0.26983 -0.25056,0.26983 -0.0964,0.0964 -0.0964,0.11564 -0.23129,0.23129 c -0.17347,0.17347 -0.34693,0.32766 -0.50112,0.4433 -0.0193,0.0193 -0.0578,0.0578 -0.0964,0.11564 l -0.0386,0.0578 -0.0578,0.0578 c -0.15419,0.13492 -0.34693,0.30838 -0.59749,0.5204 l -0.28911,0.25056 c -0.11564,0.0964 -0.21201,0.17347 -0.26983,0.23129 l -0.19274,0.15419 -0.0964,0.0771 -0.0964,0.0964 c -0.0578,0.0578 -0.13492,0.11564 -0.21201,0.21201 -0.17347,0.11564 -0.30838,0.23129 -0.40475,0.32766 -0.0193,0.0193 -0.0771,0.0578 -0.17347,0.11564 l -0.0578,0.0385 -0.0771,0.0578 c -0.0578,0.0386 -0.11564,0.0771 -0.17347,0.11564 -0.63604,0.4433 -1.23353,0.73241 -1.67683,0.79023 h -0.15419 l -0.0385,-0.0385 c -0.13492,-0.15419 -0.23129,-0.40475 -0.23129,-0.55894 v -0.0578 l 0.0193,-0.0578 v -0.15419 c 0.0193,-0.11564 0.0578,-0.21201 0.0964,-0.26983 l 0.0578,-0.30838 0.0385,-0.0193 c 0.0578,-0.0193 0.11564,-0.0193 0.15419,-0.0193 l 0.0771,-0.0193 0.0771,-0.0193 c 0.26983,-0.0193 0.63604,-0.19274 1.07934,-0.48185 0.15419,-0.0964 0.32766,-0.21201 0.53967,-0.38548 l 0.13492,-0.0771 0.11564,-0.0964 c 0.0771,-0.0578 0.13492,-0.11564 0.19274,-0.15419 l 0.17347,-0.11564 0.15419,-0.13492 c 0.13492,-0.0964 0.25056,-0.17347 0.34693,-0.23129 0.94442,-0.90587 1.58046,-1.71538 1.90812,-2.38996 0.25056,-0.5204 0.38548,-0.98297 0.4433,-1.42627 l 0.0193,-0.0578 c 0.0193,-0.0193 0.0193,-0.0578 0.0386,-0.0771 0.0385,-0.0578 0.0578,-0.15419 0.0578,-0.28911 v -0.11564 c 0,-0.11564 -0.0193,-0.23129 -0.0385,-0.32766 -0.0771,-0.32766 -0.25056,-0.57822 -0.5204,-0.79023 -0.40475,-0.28911 -0.8095,-0.38548 -1.19498,-0.40475 h -0.0964 c -0.11564,0 -0.25056,0.0193 -0.38548,0.0386 l -0.23129,0.0385 c -0.0771,0.0193 -0.13492,0.0193 -0.19274,0.0193 -0.11564,0.0578 -0.23129,0.13492 -0.34693,0.19274 l -0.15419,0.0964 -0.11564,0.0771 -0.23129,0.17347 -0.21201,0.17347 c -0.55894,0.4433 -0.90587,0.8095 -1.36845,1.36845 l -0.28911,0.3662 -0.28911,0.3662 c -0.0193,0.0386 -0.0578,0.0964 -0.0964,0.17347 l -0.0578,0.0964 -0.0385,0.0771 c -0.48185,0.71313 -0.86733,1.31062 -1.11789,1.79247 l -0.15419,0.30838 -0.0771,0.15419 -0.0578,0.17347 c -0.0578,0.13492 -0.11564,0.26983 -0.15419,0.42403 -0.13492,0.28911 -0.21201,0.5204 -0.23129,0.73241 -0.0193,0.0193 -0.0193,0.0578 -0.0385,0.11564 -0.0193,0.0578 -0.0386,0.13492 -0.0578,0.19274 -0.0771,0.38548 -0.11564,0.73241 -0.11564,1.02152 0,0.13492 0,0.26983 0.0193,0.40475 0.0771,0.67459 0.38548,1.31062 0.90587,1.71538 0.46257,0.40475 1.04079,0.55894 1.48409,0.55894 0.17347,0 0.3662,-0.0386 0.57822,-0.11564 l 0.28911,-0.11564 0.26983,-0.11564 c 0.67459,-0.26983 1.23353,-0.55894 1.67683,-0.8866 0.25056,-0.17347 0.50112,-0.38548 0.75168,-0.61676 l 0.15419,-0.17347 0.15419,-0.17347 c 0.13492,-0.13492 0.26983,-0.25056 0.3662,-0.30838 0.0386,-0.0193 0.0771,-0.0578 0.11564,-0.11564 l 0.0578,-0.0578 0.0578,-0.0578 c 0.53967,-0.4433 0.94442,-0.8095 1.23353,-1.09861 l 0.19274,-0.17347 0.0964,-0.11564 0.0771,-0.0964 c 0.0771,-0.0771 0.15419,-0.17347 0.21201,-0.26983 0.17347,-0.17347 0.28911,-0.30838 0.34693,-0.4433 0.0578,-0.0578 0.19274,-0.21201 0.40475,-0.50112 0.46257,-0.63604 0.84805,-1.2528 1.17571,-1.88884 0.15419,-0.28911 0.23129,-0.4433 0.25056,-0.50112 v -0.0385 c 0,-0.13492 -0.0578,-0.13492 -0.15419,-0.21201 z"
           data-paper-data="{&quot;glyphName&quot;:&quot;e&quot;,&quot;glyphIndex&quot;:4,&quot;word&quot;:1}"
           id="path10" />
        <path
           d="m 258.73454,337.26802 -0.0193,-0.0771 -0.0193,-0.0964 -0.0193,-0.0771 -0.0193,-0.0771 c -0.0193,-0.0964 -0.17347,-0.13492 -0.25056,-0.13492 h -0.0578 l -0.0771,-0.0193 c -0.0578,-0.0193 -0.11564,-0.0193 -0.17347,-0.0193 -0.21201,0 -0.50112,0.0771 -0.82878,0.21201 l -0.25056,0.13492 -0.23129,0.11564 -0.11564,0.0771 -0.0964,0.0578 c -0.0771,0.0386 -0.13492,0.0771 -0.19274,0.0964 l -0.13492,0.0771 -0.15419,0.0964 c -0.11564,0.0771 -0.21201,0.11564 -0.28911,0.13492 l -0.48185,0.38548 -0.4433,0.3662 c -0.67459,0.55894 -0.92515,0.84805 -1.44554,1.46482 l -0.32766,0.40475 -0.32766,0.38548 c -0.0193,0.0385 -0.0578,0.0964 -0.11564,0.17347 l -0.0578,0.0964 -0.0578,0.0964 -0.34693,0.50112 c 0.0193,-0.0964 0.0385,-0.21201 0.0385,-0.30838 v -0.0964 c 0.0578,-0.13492 0.15419,-0.73241 0.23129,-1.2528 l 0.0964,-0.61676 c 0.17347,-1.09861 0.26983,-1.67683 0.30838,-1.71538 0.0193,-0.0193 0.0193,-0.0385 0.0193,-0.0578 0,-0.0578 -0.11564,-0.11564 -0.32766,-0.17347 v -0.0193 c 0,-0.0964 -0.21201,-0.17347 -0.42403,-0.19274 l -0.0964,-0.0386 -0.11564,-0.0193 h -0.0578 l -0.0964,-0.0193 c -0.21201,-0.0578 -0.40475,-0.0771 -0.55894,-0.0771 -0.13492,0 -0.15419,0.0578 -0.21201,0.11564 l -0.0193,0.0386 -0.0385,0.0385 c -0.13492,0.0964 -0.21201,0.32766 -0.25056,0.65531 l -0.0193,0.21201 -0.0193,0.17347 c -0.0193,0.15419 -0.0193,0.26983 -0.0386,0.32766 l -0.0385,0.11564 -0.0193,0.11564 c -0.0193,0.0964 -0.0578,0.17347 -0.0964,0.21201 l -0.0578,0.4433 -0.0386,0.42403 c -0.0578,0.32766 -0.0964,0.59749 -0.15419,0.8095 -0.0193,0.0964 -0.0193,0.19274 -0.0193,0.32766 v 0.50112 c 0,0.25056 -0.0193,0.4433 -0.0771,0.59749 -0.0193,0.0386 -0.0193,0.0964 -0.0193,0.15419 l -0.0193,0.15419 c -0.0578,0.21201 -0.13492,0.50112 -0.23129,0.86733 l -0.11564,0.42403 c -0.0386,0.15419 -0.0771,0.28911 -0.11564,0.38548 l -0.0193,0.13492 -0.0385,0.13492 -0.0386,0.13492 -0.0385,0.15419 c -0.0193,0.0964 -0.0386,0.21201 -0.0578,0.34693 -0.0964,0.21201 -0.13492,0.40475 -0.13492,0.55894 -0.0193,0.0578 -0.0964,0.26983 -0.19274,0.65531 l -0.0771,0.26983 -0.0771,0.28911 c -0.0578,0.21201 -0.13492,0.42403 -0.19274,0.59749 -0.0578,0.17347 -0.11564,0.38548 -0.17347,0.61676 l -0.0964,0.26983 -0.0385,0.13492 -0.0386,0.11564 c -0.0964,0.34693 -0.15419,0.53967 -0.15419,0.55894 0,0.17347 0.0964,0.19274 0.19274,0.25056 l 0.0771,0.0385 0.0771,0.0386 0.0193,0.0193 c 0.0193,0 0.11564,0.0578 0.32766,0.17347 l 0.0578,0.0386 0.0771,0.0385 h 0.0578 c 0.0578,0 0.0964,-0.0385 0.15419,-0.0578 l 0.0386,-0.0193 0.11564,0.0385 0.0964,0.0385 h 0.0771 l 0.0964,0.0385 c 0.0964,0.0193 0.19274,0.0193 0.26983,0.0386 0.13492,0.0193 0.23129,0.0385 0.30838,0.0385 0.0964,0 0.15419,-0.0385 0.21201,-0.11564 l 0.0193,-0.0386 0.0578,-0.0385 c 0.13492,-0.13492 0.25056,-0.38548 0.34693,-0.79023 l 0.0578,-0.23129 0.0578,-0.21201 c 0.0385,-0.17347 0.0771,-0.30838 0.11564,-0.38548 l 0.0578,-0.13492 0.0578,-0.13492 c 0.0385,-0.11564 0.0771,-0.19274 0.13492,-0.25056 l 0.15419,-0.50112 0.17347,-0.48185 c 0.13492,-0.3662 0.25056,-0.69386 0.38548,-0.94442 0.0385,-0.0964 0.0771,-0.23129 0.13492,-0.3662 l 0.0578,-0.21201 0.0578,-0.21201 c 0.0964,-0.3662 0.21201,-0.63604 0.34693,-0.84805 0.0193,-0.0385 0.0578,-0.0964 0.0771,-0.17347 l 0.0578,-0.0964 0.0386,-0.0964 c 0.32766,-0.55894 0.69386,-1.11789 1.15643,-1.79247 l 0.21201,-0.26983 0.0964,-0.15419 0.0964,-0.15419 c 0.0771,-0.0964 0.15419,-0.21201 0.23129,-0.34693 0.19274,-0.21201 0.34693,-0.40475 0.4433,-0.57822 0.0193,0 0.0771,-0.0771 0.19274,-0.21201 0.13492,-0.13492 0.23129,-0.25056 0.3662,-0.40475 0.75168,-0.79023 1.48409,-1.38772 2.27432,-1.79247 0.0771,-0.0385 0.15419,-0.0771 0.25056,-0.11564 l 0.11564,-0.0385 0.0771,-0.0578 c 0.25056,-0.0771 0.34693,-0.13492 0.34693,-0.26983 0,-0.0193 0,-0.0578 -0.0193,-0.11564 z"
           data-paper-data="{&quot;glyphName&quot;:&quot;r&quot;,&quot;glyphIndex&quot;:5,&quot;lastGlyphOfWord&quot;:true,&quot;word&quot;:1}"
           id="path12" />
      </g>
      <g
         data-paper-data="{&quot;isPrimaryText&quot;:true}"
         fill-rule="nonzero"
         id="g24">
        <path
           d="m 170.72986,316.06618 c 1.19188,5.0655 5.0655,8.14453 10.03168,7.64792 2.28444,-0.19865 4.27091,-1.29121 5.86009,-3.17835 3.87362,-4.76753 4.46956,-14.60057 4.27091,-21.75187 -2.28444,1.09256 -6.25739,3.27768 -8.24386,6.45603 -0.39729,5.76077 -1.39053,9.83304 -2.68174,10.32965 0,0 -0.0993,0 -0.19865,0 -0.39729,0 -0.79459,-0.0993 -0.99324,-1.29121 -0.69527,-2.78106 0.49662,-7.64792 3.97294,-11.72018 0,0 3.67497,-3.7743 8.14453,-5.66144 l 26.42008,-9.23709 v 21.55322 c 0,2.18512 1.88715,4.07227 4.17159,4.07227 2.18512,0 4.07227,-1.88715 4.07227,-4.07227 v -23.63902 l 19.66607,-7.1513 c 0.89391,-0.29797 1.98647,-0.49662 2.97971,-0.49662 5.76077,0 10.32965,5.0655 10.32965,11.22357 0,6.15806 -4.56889,11.12424 -10.32965,11.12424 -5.66144,0 -10.32965,-4.96618 -10.32965,-11.12424 0,-2.97971 1.09256,-5.66144 2.78106,-7.64792 l -10.5283,3.87362 c -0.29797,1.19188 -0.39729,2.48309 -0.39729,3.7743 0,10.62762 8.34318,19.26878 18.47419,19.26878 10.23033,0 18.57351,-8.64115 18.57351,-19.26878 0,-10.72695 -8.34318,-19.3681 -18.57351,-19.3681 -1.6885,0 -3.377,0.29797 -4.96618,0.69527 -0.19865,0.0993 -17.6796,6.35671 -17.6796,6.35671 v -10.42898 c 0,-2.28444 -1.88715,-4.07227 -4.07227,-4.07227 -2.28444,0 -4.17159,1.78782 -4.17159,4.07227 v 13.40869 l -26.81737,9.33642 v -22.7451 c 0,-2.28444 -1.78782,-4.07227 -4.07227,-4.07227 -2.28444,0 -4.17159,1.78782 -4.17159,4.07227 v 25.92346 c -9.63439,6.15806 -13.01139,17.08366 -11.52154,23.73834 z"
           data-paper-data="{&quot;glyphName&quot;:&quot;&quot;,&quot;glyphIndex&quot;:0,&quot;firstGlyphOfWord&quot;:true,&quot;word&quot;:1}"
           id="path16" />
        <path
           d="m 306.40588,266.50371 c 0,-2.28444 -1.78782,-4.17159 -4.07227,-4.17159 H 266.0805 c -2.28444,0 -4.07227,1.88715 -4.07227,4.17159 0,2.18512 1.78782,4.07227 4.07227,4.07227 h 14.00463 v 38.63688 c 0,2.28444 1.88715,4.07227 4.17159,4.07227 2.18512,0 4.07227,-1.78782 4.07227,-4.07227 v -38.63688 h 14.00463 c 2.28444,0 4.07227,-1.88715 4.07227,-4.07227 z"
           data-paper-data="{&quot;glyphName&quot;:&quot;T&quot;,&quot;glyphIndex&quot;:1,&quot;word&quot;:1}"
           id="path18" />
        <path
           d="m 343.35426,309.31218 c 0,-2.18512 -1.78782,-3.97294 -3.97294,-3.97294 H 319.9139 v -11.81951 c 0,-0.0993 0.0993,-0.19865 0.0993,-0.29797 0.29797,-1.98647 1.39053,-4.07227 4.07227,-6.05874 2.18512,-1.88715 5.0655,-2.97971 8.44251,-2.97971 2.18512,0 3.377,0.69527 3.7743,1.29121 0.0993,0.0993 0.19865,0.39729 -0.0993,0.89391 -0.39729,0.79459 -1.98647,1.6885 -4.76753,1.6885 -2.38377,0 -4.27091,-0.19865 -5.86009,-0.49662 -2.48309,1.19188 -3.87362,3.47633 -4.46956,5.36347 2.68174,1.09256 6.05874,1.58918 10.23033,1.58918 4.86686,0 8.64115,-1.6885 10.5283,-4.86686 1.39053,-2.38377 1.39053,-5.16483 0.0993,-7.44927 -1.6885,-2.88038 -5.16483,-4.56889 -9.43574,-4.56889 -4.96618,0 -9.23709,1.58918 -12.6141,4.37024 V 270.278 h 19.46742 c 2.18512,0 3.97294,-1.78782 3.97294,-3.97294 0,-2.18512 -1.78782,-3.97294 -3.97294,-3.97294 H 316.5369 c -2.88038,0 -5.16483,2.28444 -5.16483,5.16483 v 9.03845 0 c 0.39729,3.87362 0.99324,9.43574 3.47633,11.91883 -2.58241,2.58241 -3.377,5.95942 -3.47633,10.13101 v 0 9.53506 c 0,2.88038 2.28444,5.16483 5.16483,5.16483 h 22.84443 c 2.18512,0 3.97294,-1.78782 3.97294,-3.97294 z"
           data-paper-data="{&quot;glyphName&quot;:&quot;&quot;,&quot;glyphIndex&quot;:2,&quot;word&quot;:1}"
           id="path20" />
        <path
           d="m 353.48527,313.28512 h 22.14916 c 2.18512,0 3.97294,-1.78782 3.97294,-3.97294 0,-2.18512 -1.78782,-3.97294 -3.97294,-3.97294 h -18.77216 v -38.7362 c 0,-2.28444 -1.88715,-4.27091 -4.27091,-4.27091 v 0 c -2.38377,0 -4.27091,1.98647 -4.27091,4.27091 v 41.51726 c 0,2.88038 2.28444,5.16483 5.16483,5.16483 z"
           data-paper-data="{&quot;glyphName&quot;:&quot;L&quot;,&quot;glyphIndex&quot;:3,&quot;lastGlyphOfWord&quot;:true,&quot;word&quot;:1}"
           id="path22" />
      </g>
      <g
         data-paper-data="{&quot;selectedEffects&quot;:{&quot;container&quot;:&quot;&quot;,&quot;transformation&quot;:&quot;&quot;,&quot;pattern&quot;:&quot;&quot;},&quot;initialText&quot;:&quot;H&quot;,&quot;isIcon&quot;:&quot;true&quot;,&quot;iconType&quot;:&quot;initial&quot;,&quot;iconStyle&quot;:&quot;standalone&quot;,&quot;rawInitialId&quot;:346,&quot;disableIconEffects&quot;:&quot;true&quot;,&quot;monogramSpecial&quot;:&quot;seven-nation-army&quot;,&quot;bounds&quot;:{&quot;x&quot;:210.7511555031275,&quot;y&quot;:115,&quot;width&quot;:128.497688993745,&quot;height&quot;:120.10171952401592},&quot;fillRule&quot;:&quot;evenodd&quot;,&quot;suitableAsStandaloneIcon&quot;:true}"
         fill-rule="evenodd"
         id="g28">
        <path
           d="m 339.24884,221.03191 c 0,0.22859 -0.006,0.46277 -0.0175,0.70254 -0.012,0.22316 -0.0284,0.45126 -0.0514,0.68431 -0.0219,0.22261 -0.0503,0.45004 -0.0842,0.68228 -0.0339,0.2272 -0.0733,0.45344 -0.11807,0.6787 -0.0437,0.22049 -0.094,0.44498 -0.15087,0.67345 -0.0557,0.224 -0.11807,0.44653 -0.18476,0.66759 -0.0667,0.21664 -0.13884,0.43661 -0.21865,0.65991 -0.0754,0.20936 -0.15742,0.4215 -0.24598,0.63643 -0.0885,0.21594 -0.18148,0.42504 -0.27877,0.62725 -0.0973,0.20787 -0.20225,0.41533 -0.31266,0.62237 -0.10823,0.20248 -0.22083,0.40186 -0.3389,0.59815 -0.11807,0.19736 -0.2416,0.39215 -0.36951,0.58436 -0.12791,0.19126 -0.26019,0.37902 -0.39684,0.5633 -0.13775,0.18529 -0.27987,0.36711 -0.42636,0.54544 -0.1454,0.17786 -0.29626,0.35205 -0.45041,0.52258 -0.15414,0.17065 -0.31266,0.33719 -0.47555,0.49964 -0.16289,0.16313 -0.33015,0.32216 -0.5007,0.47708 -0.17054,0.15443 -0.34437,0.30463 -0.52278,0.45059 -0.17809,0.14614 -0.35956,0.28772 -0.54421,0.4247 -0.18519,0.13742 -0.37345,0.26992 -0.56476,0.39772 -0.19164,0.12802 -0.38624,0.25133 -0.58378,0.36973 -0.19733,0.11829 -0.39772,0.23176 -0.60116,0.34054 -0.20301,0.10856 -0.40843,0.21198 -0.61636,0.31026 -0.20826,0.0985 -0.41871,0.19175 -0.63156,0.27997 -0.21263,0.088 -0.42745,0.17087 -0.64435,0.2486 -0.21668,0.0775 -0.43521,0.14966 -0.65561,0.21646 -0.22028,0.0668 -0.44221,0.12824 -0.66556,0.18421 -0.22335,0.056 -0.44789,0.10637 -0.67354,0.1513 -0.22597,0.0449 -0.45281,0.0843 -0.68053,0.11807 -0.22783,0.0338 -0.45631,0.062 -0.68545,0.0845 -0.22903,0.0226 -0.45872,0.0396 -0.68884,0.0508 -0.22991,0.0113 -0.46003,0.0169 -0.69026,0.0169 H 224.82094 c -0.23023,0 -0.46038,-0.006 -0.69046,-0.0169 -0.22996,-0.0113 -0.45949,-0.0282 -0.6886,-0.0508 -0.22919,-0.0225 -0.45763,-0.0507 -0.68532,-0.0845 -0.22782,-0.0338 -0.45467,-0.0731 -0.68054,-0.11807 -0.22583,-0.0449 -0.45041,-0.0953 -0.67374,-0.1513 -0.22338,-0.056 -0.44522,-0.11738 -0.66552,-0.18421 -0.22038,-0.0668 -0.439,-0.13906 -0.65583,-0.21657 -0.21679,-0.0776 -0.43155,-0.16049 -0.64427,-0.2486 -0.21272,-0.0881 -0.42317,-0.18137 -0.63135,-0.27987 -0.20817,-0.0985 -0.41374,-0.20192 -0.61671,-0.31037 -0.20312,-0.10856 -0.40344,-0.22203 -0.60097,-0.34043 -0.19749,-0.1184 -0.392,-0.24149 -0.58351,-0.36951 -0.19145,-0.12791 -0.37962,-0.26041 -0.56454,-0.39761 -0.18494,-0.1372 -0.36642,-0.27877 -0.54444,-0.42489 -0.17801,-0.14609 -0.35232,-0.29646 -0.52294,-0.4511 -0.17056,-0.1546 -0.33729,-0.31335 -0.50019,-0.47623 -0.16277,-0.16279 -0.32146,-0.32947 -0.47607,-0.50003 -0.15464,-0.17062 -0.30501,-0.34493 -0.4511,-0.52294 -0.14612,-0.17802 -0.28769,-0.35949 -0.42489,-0.5444 -0.1372,-0.18494 -0.2697,-0.37317 -0.39772,-0.56468 -0.12791,-0.19143 -0.251,-0.38589 -0.36929,-0.58334 -0.1184,-0.19756 -0.23187,-0.39784 -0.34043,-0.60083 -0.10856,-0.2031 -0.21209,-0.40876 -0.31059,-0.61697 -0.0984,-0.20814 -0.19164,-0.41857 -0.27976,-0.63132 -0.0881,-0.2127 -0.17098,-0.42744 -0.2486,-0.64424 -0.0775,-0.21683 -0.14977,-0.43542 -0.21657,-0.65576 -0.0668,-0.22034 -0.12824,-0.4422 -0.18421,-0.66556 -0.056,-0.22337 -0.10637,-0.44796 -0.1513,-0.67378 -0.0449,-0.22587 -0.0843,-0.45267 -0.11807,-0.68038 -0.0338,-0.2278 -0.062,-0.45629 -0.0845,-0.68548 -0.0226,-0.22911 -0.0395,-0.4587 -0.0508,-0.68877 -0.0113,-0.22997 -0.0169,-0.46006 -0.0169,-0.69029 v -40.93035 c 0,-0.60608 0.039,-1.20965 0.11698,-1.81071 0.0779,-0.60116 0.19438,-1.19468 0.34907,-1.78054 0.13075,-0.49534 0.28796,-0.98183 0.47173,-1.45946 -0.18377,-0.47763 -0.34098,-0.96412 -0.47162,-1.45924 -0.15469,-0.58608 -0.27112,-1.17959 -0.34918,-1.78075 -0.078,-0.60106 -0.11698,-1.20462 -0.11698,-1.81071 V 129.0698 c 0,-0.23023 0.006,-0.46039 0.0169,-0.69048 0.0113,-0.23001 0.0282,-0.45948 0.0508,-0.68851 0.0225,-0.22925 0.0507,-0.45762 0.0845,-0.68534 0.0338,-0.22794 0.0731,-0.45467 0.11807,-0.68042 0.0449,-0.22586 0.0953,-0.45052 0.1513,-0.67386 0.056,-0.22335 0.11741,-0.44538 0.18432,-0.66599 0.0668,-0.22007 0.13895,-0.4386 0.21657,-0.65561 0.0775,-0.21657 0.16038,-0.43128 0.24838,-0.64391 0.0882,-0.21285 0.18148,-0.4233 0.27997,-0.63156 0.0983,-0.20793 0.20181,-0.41357 0.31059,-0.61702 0.10845,-0.20301 0.22182,-0.40318 0.34021,-0.60051 0.1184,-0.19755 0.24149,-0.39192 0.36929,-0.58313 0.12802,-0.19175 0.26062,-0.38001 0.39761,-0.56465 0.13731,-0.18519 0.2791,-0.36689 0.42524,-0.54497 0.14597,-0.17787 0.29643,-0.35224 0.45137,-0.52322 0.15444,-0.17032 0.31298,-0.33682 0.47562,-0.49949 0.1629,-0.163 0.32968,-0.32174 0.50033,-0.47643 0.17053,-0.15451 0.34472,-0.30479 0.52258,-0.45085 0.17834,-0.14638 0.35985,-0.28796 0.54452,-0.42483 0.18488,-0.13716 0.37339,-0.26995 0.56554,-0.39837 0.19141,-0.1278 0.38536,-0.25068 0.58184,-0.36842 0.19786,-0.11861 0.39851,-0.23231 0.60195,-0.34109 0.20316,-0.10852 0.40843,-0.21179 0.61578,-0.30982 0.20853,-0.0987 0.41896,-0.19208 0.63129,-0.27997 0.21311,-0.0883 0.42823,-0.17131 0.64534,-0.24904 0.21667,-0.0775 0.43521,-0.14966 0.65562,-0.21657 0.22042,-0.0668 0.4424,-0.12824 0.66594,-0.18421 0.22267,-0.0558 0.44731,-0.10623 0.67392,-0.15141 0.22579,-0.0448 0.45248,-0.0841 0.68006,-0.11785 0.22777,-0.0338 0.45573,-0.0619 0.68387,-0.0844 0.23011,-0.0227 0.45994,-0.0397 0.68949,-0.0508 0.23025,-0.0114 0.46055,-0.017 0.69091,-0.017 H 325.179 c 0.23038,0 0.46007,0.006 0.68906,0.0169 0.23078,0.0113 0.46058,0.0282 0.68961,0.0508 0.22925,0.0225 0.45784,0.0507 0.68556,0.0845 0.22772,0.0338 0.45489,0.0731 0.68174,0.11829 0.22542,0.0449 0.44953,0.0952 0.67222,0.15097 0.22356,0.056 0.44571,0.11741 0.66654,0.18443 0.21996,0.0668 0.43838,0.13895 0.65528,0.21646 0.2169,0.0776 0.4315,0.16038 0.6438,0.24838 0.2134,0.0883 0.42384,0.18158 0.63134,0.27987 0.20804,0.0984 0.4139,0.20203 0.61756,0.3108 0.20323,0.10856 0.40329,0.22192 0.60018,0.33999 0.19744,0.1184 0.39214,0.2416 0.584,0.36973 0.19164,0.12802 0.37935,0.2603 0.56334,0.39684 0.18552,0.13742 0.36743,0.27943 0.54596,0.42603 0.1782,0.14573 0.35202,0.29583 0.52256,0.4503 0.17054,0.15502 0.33781,0.31386 0.5007,0.47665 0.16289,0.16278 0.32141,0.32961 0.47555,0.50048 0.15414,0.17043 0.30501,0.34448 0.45041,0.52212 0.14649,0.17841 0.28861,0.35978 0.42526,0.54421 0.13665,0.18508 0.27003,0.37366 0.39793,0.56563 0.12791,0.19153 0.25144,0.38569 0.36951,0.58236 0.11807,0.19685 0.23249,0.39888 0.34327,0.60608 0.10823,0.20257 0.20881,0.40318 0.30173,0.60182 0.10167,0.21132 0.19897,0.42975 0.29189,0.65528 0.0842,0.20542 0.16508,0.41783 0.24488,0.63724 0.0754,0.21318 0.14649,0.42811 0.21318,0.64489 0.0667,0.22094 0.13009,0.44866 0.18913,0.68316 0.0536,0.2181 0.10276,0.43729 0.14649,0.65768 0.0448,0.22531 0.0853,0.45697 0.12135,0.69496 0.0317,0.22138 0.0601,0.44877 0.0831,0.68217 0.0208,0.22225 0.0383,0.45063 0.0503,0.68491 0.0109,0.22859 0.0164,0.45719 0.0164,0.68578 z m -7.67444,-91.9621 c 0,-0.10626 -0.003,-0.21241 -0.008,-0.31846 -0.005,-0.10047 -0.0132,-0.20596 -0.0238,-0.31671 -0.0101,-0.0999 -0.0231,-0.2048 -0.0391,-0.31485 -0.014,-0.0935 -0.0313,-0.19164 -0.0518,-0.29462 -0.0216,-0.10823 -0.0456,-0.21569 -0.0719,-0.3225 -0.0227,-0.0904 -0.0493,-0.18541 -0.0796,-0.285 -0.0316,-0.10353 -0.0656,-0.2064 -0.102,-0.30884 -0.0347,-0.0959 -0.0733,-0.1958 -0.11588,-0.29987 -0.0349,-0.084 -0.074,-0.17164 -0.11763,-0.26303 -0.0491,-0.10418 -0.0984,-0.20268 -0.14791,-0.2955 -0.0471,-0.088 -0.0978,-0.17732 -0.15207,-0.26784 -0.0542,-0.0904 -0.11042,-0.17918 -0.16858,-0.2662 -0.0578,-0.0865 -0.11785,-0.17164 -0.18005,-0.2556 -0.0629,-0.0847 -0.12725,-0.16737 -0.19317,-0.24772 -0.0666,-0.0811 -0.13523,-0.16059 -0.20585,-0.23854 -0.07,-0.0772 -0.14201,-0.15283 -0.21613,-0.22695 -0.074,-0.0741 -0.14966,-0.14616 -0.22684,-0.21602 -0.0778,-0.0705 -0.15735,-0.13917 -0.23854,-0.20585 -0.0804,-0.0659 -0.16234,-0.12988 -0.24598,-0.19186 -0.0852,-0.0631 -0.17109,-0.12364 -0.25789,-0.18169 -0.0867,-0.0579 -0.17481,-0.1138 -0.26456,-0.16748 -0.0904,-0.0542 -0.18169,-0.10593 -0.27374,-0.15524 -0.0919,-0.0491 -0.18519,-0.096 -0.27976,-0.1407 -0.095,-0.0449 -0.19066,-0.0874 -0.28697,-0.12725 -0.0974,-0.0403 -0.19525,-0.0782 -0.29331,-0.11326 -0.0985,-0.0352 -0.19798,-0.0681 -0.29845,-0.0986 -0.0997,-0.0303 -0.20028,-0.058 -0.30162,-0.0834 -0.102,-0.0255 -0.20465,-0.0485 -0.30796,-0.0692 -0.10178,-0.0202 -0.20432,-0.0379 -0.30785,-0.0533 -0.10342,-0.0153 -0.20728,-0.0281 -0.31146,-0.0384 -0.1044,-0.0103 -0.20837,-0.0179 -0.31201,-0.0231 -0.1055,-0.005 -0.21056,-0.008 -0.31518,-0.008 H 224.82098 c -0.10456,0 -0.20899,0.003 -0.31327,0.008 -0.10486,0.005 -0.20895,0.0129 -0.31226,0.0231 -0.10529,0.0104 -0.20965,0.0232 -0.31307,0.0385 -0.10362,0.0154 -0.20684,0.0333 -0.30963,0.0538 -0.1021,0.0203 -0.20415,0.0433 -0.30614,0.0688 -0.10136,0.0254 -0.20208,0.0532 -0.30216,0.0836 -0.10012,0.0303 -0.19951,0.0632 -0.29818,0.0985 -0.098,0.0351 -0.19531,0.0726 -0.29184,0.1126 -0.0972,0.0402 -0.19286,0.0827 -0.28702,0.12714 -0.0954,0.0452 -0.18923,0.0924 -0.28143,0.14168 -0.092,0.0491 -0.18265,0.10047 -0.27204,0.15414 -0.0907,0.0543 -0.17967,0.11063 -0.26681,0.16879 -0.0863,0.0576 -0.17151,0.11774 -0.25572,0.18016 -0.0843,0.0625 -0.16677,0.12692 -0.24734,0.19306 -0.081,0.0665 -0.16032,0.1349 -0.23802,0.20531 -0.0775,0.0703 -0.15324,0.14234 -0.22717,0.21624 -0.0742,0.0742 -0.14651,0.15021 -0.21701,0.22794 -0.07,0.0773 -0.13822,0.15644 -0.20474,0.23745 -0.0663,0.0808 -0.13051,0.16311 -0.1927,0.24696 -0.0626,0.0843 -0.12282,0.16989 -0.18078,0.25658 -0.0584,0.0873 -0.1144,0.17579 -0.16813,0.26544 -0.0539,0.09 -0.10554,0.18104 -0.15492,0.27342 -0.0492,0.0922 -0.0962,0.18552 -0.14103,0.2803 -0.0447,0.0945 -0.0871,0.19 -0.12712,0.28675 -0.0401,0.0969 -0.0778,0.19459 -0.11311,0.2932 -0.0352,0.0985 -0.068,0.19787 -0.0985,0.29812 -0.0303,0.0999 -0.0582,0.20061 -0.0836,0.30217 -0.0254,0.10156 -0.0484,0.20367 -0.0688,0.30632 -0.0204,0.10276 -0.0383,0.20585 -0.0537,0.30916 -0.0154,0.10364 -0.0282,0.20749 -0.0385,0.31168 -0.0103,0.10422 -0.018,0.20859 -0.0231,0.3131 -0.005,0.1044 -0.008,0.20902 -0.008,0.31376 v 40.93035 c 0,0.27549 0.0177,0.54989 0.0532,0.82309 0.0354,0.2732 0.0883,0.5429 0.15863,0.8091 0.0704,0.26653 0.15756,0.52737 0.2616,0.78264 0.10395,0.25494 0.22394,0.50223 0.35993,0.74186 0.0816,0.14376 0.15359,0.29211 0.216,0.44527 0.0624,0.15305 0.11472,0.30949 0.15691,0.46932 0.0422,0.15983 0.0739,0.32174 0.0952,0.48561 0.0213,0.16387 0.0319,0.32851 0.0319,0.49381 0,0.1653 -0.0106,0.32994 -0.0319,0.49381 -0.0213,0.16387 -0.053,0.32578 -0.0952,0.48561 -0.0422,0.15983 -0.0945,0.31627 -0.1569,0.46932 -0.0624,0.15305 -0.13441,0.30151 -0.216,0.44527 -0.13601,0.23963 -0.25602,0.48703 -0.36004,0.74208 -0.10398,0.25505 -0.19113,0.51578 -0.26146,0.7822 -0.0703,0.26642 -0.12322,0.53612 -0.15866,0.80931 -0.0355,0.2732 -0.0532,0.5476 -0.0532,0.82309 v 40.93035 c 0,0.1047 0.003,0.20933 0.008,0.31389 0.005,0.10447 0.0128,0.2088 0.0231,0.31299 0.0103,0.10414 0.0231,0.20795 0.0384,0.31144 0.0154,0.10359 0.0333,0.2067 0.0537,0.30932 0.0204,0.10264 0.0434,0.20474 0.0688,0.30628 0.0254,0.10155 0.0533,0.2024 0.0837,0.30254 0.0304,0.10017 0.0632,0.19952 0.0985,0.29804 0.0353,0.0986 0.0729,0.19623 0.113,0.29294 0.04,0.0967 0.0824,0.19235 0.12722,0.28699 0.0447,0.0945 0.0917,0.18796 0.14106,0.28024 0.0494,0.0924 0.10096,0.18344 0.15474,0.27316 0.0538,0.0898 0.10985,0.17826 0.168,0.2653 0.0581,0.087 0.11835,0.17249 0.18071,0.25657 0.0624,0.0841 0.12673,0.16656 0.19312,0.24746 0.0664,0.0809 0.13473,0.16011 0.20501,0.23766 0.0703,0.0776 0.14251,0.15342 0.21656,0.22747 0.0739,0.0739 0.14971,0.14607 0.2273,0.21639 0.0775,0.0703 0.15676,0.13862 0.23766,0.20501 0.0809,0.0664 0.16337,0.13076 0.24743,0.1931 0.0841,0.0624 0.16967,0.12264 0.25671,0.1808 0.087,0.0581 0.17535,0.11408 0.26514,0.1679 0.0898,0.0538 0.18076,0.10535 0.27302,0.15466 0.0924,0.0494 0.1859,0.0965 0.2805,0.1412 0.0946,0.0447 0.19025,0.0871 0.28696,0.1272 0.0967,0.0401 0.19433,0.0777 0.29291,0.113 0.0985,0.0352 0.19783,0.068 0.29796,0.0984 0.10019,0.0304 0.20106,0.0583 0.30258,0.0837 0.10156,0.0254 0.20366,0.0484 0.30631,0.0688 0.10262,0.0204 0.20568,0.0383 0.30916,0.0536 0.1036,0.0154 0.20747,0.0282 0.31161,0.0384 0.1042,0.0103 0.20858,0.018 0.31316,0.0231 0.10445,0.005 0.20902,0.008 0.31372,0.008 h 100.35807 c 0.10473,0 0.20935,-0.003 0.31397,-0.008 0.10437,-0.005 0.20862,-0.0128 0.31277,-0.0231 0.10418,-0.0103 0.20804,-0.0231 0.31157,-0.0384 0.10353,-0.0153 0.20651,-0.0332 0.30905,-0.0536 0.10284,-0.0205 0.20505,-0.0434 0.30665,-0.0688 0.10156,-0.0254 0.20236,-0.0533 0.3026,-0.0837 0.10003,-0.0303 0.1994,-0.0632 0.29812,-0.0985 0.0983,-0.0352 0.19591,-0.0728 0.29277,-0.11292 0.0968,-0.0401 0.1923,-0.0824 0.28675,-0.12713 0.0948,-0.0448 0.18836,-0.0919 0.28096,-0.14139 0.0919,-0.0491 0.18279,-0.10066 0.27276,-0.15457 0.0896,-0.0537 0.17787,-0.10962 0.26478,-0.16766 0.0871,-0.0583 0.17262,-0.11846 0.25647,-0.18061 0.0844,-0.0626 0.16694,-0.12705 0.24772,-0.19333 0.081,-0.0665 0.16049,-0.13502 0.23832,-0.20552 0.0773,-0.07 0.15272,-0.14186 0.2263,-0.21554 0.0745,-0.0744 0.14671,-0.15035 0.21701,-0.22786 0.0704,-0.0777 0.13884,-0.15704 0.20531,-0.23802 0.0662,-0.0806 0.13028,-0.16271 0.1923,-0.24642 0.063,-0.0848 0.12353,-0.17081 0.1818,-0.25796 0.0576,-0.0863 0.11337,-0.17445 0.16726,-0.26429 0.0546,-0.091 0.1067,-0.18301 0.15644,-0.27584 0.047,-0.0882 0.0929,-0.17985 0.13775,-0.27484 0.048,-0.10057 0.0913,-0.19759 0.12998,-0.29106 0.0387,-0.0945 0.0772,-0.19476 0.11544,-0.30075 0.0327,-0.0922 0.0649,-0.19012 0.0965,-0.29388 0.0303,-0.0995 0.0582,-0.19971 0.0835,-0.30051 0.0237,-0.0963 0.0465,-0.1985 0.068,-0.30661 0.0206,-0.10311 0.0386,-0.20678 0.0542,-0.31101 0.0144,-0.0992 0.0272,-0.20406 0.0383,-0.31464 0.01,-0.10002 0.0174,-0.20584 0.0232,-0.31746 0.005,-0.0949 0.007,-0.19542 0.007,-0.30164 z m -76.05567,30.69776 h 38.96255 v -30.69776 h 30.69776 v 91.9621 h -30.69776 v -30.56658 h -59.42772 v 20.33399 h 10.23259 v -10.23259 h 10.23259 v 20.46518 h -30.69776 v -40.93035 h 80.02408 v 30.69776 h 10.1014 v -71.49693 h -10.1014 v 30.69776 h -59.55891 v -30.69776 h -10.23259 v 30.69776 H 224.82097 V 129.0698 h 30.69776 z"
           data-paper-data="{&quot;isPathIcon&quot;:true}"
           id="path26" />
      </g>
    </g>
  </g>
</svg>
